<svg width="300" height="81" viewBox="0 0 300 81" fill="none" xmlns="http://www.w3.org/2000/svg">
<g clip-path="url(#clip0_403_41441)">
<path d="M133.316 17.672V7.94043H95.5801V64.3201H106.74V40.837L131.929 40.7546V31.3487L106.74 31.431V17.672H133.316Z" fill="white"/>
<path d="M139.328 24.3639V64.3159H150.573V24.3639H139.328ZM145.564 7.28125C142.034 7.28125 139.57 9.62058 139.57 12.9667C139.57 16.3129 142.034 18.7383 145.564 18.7383C149.093 18.7383 151.635 16.3653 151.635 12.9667C151.635 9.56818 149.138 7.28125 145.564 7.28125Z" fill="white"/>
<path d="M182.032 23.1326C177.272 23.1326 172.695 25.3297 169.784 29.0016L168.804 30.2405V24.3641H157.637V64.316H168.964V40.803C168.964 35.6789 172.777 32.3664 178.678 32.3664C184.578 32.3664 188.309 35.5928 188.309 40.395V64.316H199.555V41.7874C199.555 29.5817 193.494 23.1289 182.036 23.1289L182.032 23.1326Z" fill="white"/>
<path d="M205.556 24.3639V64.3159H216.805V24.3639H205.556ZM211.792 7.28125C208.266 7.28125 205.802 9.62058 205.802 12.9667C205.802 16.3129 208.266 18.7383 211.792 18.7383C215.318 18.7383 217.868 16.3653 217.868 12.9667C217.868 9.56818 215.367 7.28125 211.792 7.28125Z" fill="white"/>
<path d="M251.309 32.5389V24.3681H242.479V7.94043H231.151V24.3644H223.875V32.5352H231.151V49.674C231.151 59.5254 236.802 64.3163 248.428 64.3163H250.817V55.2397H247.772C243.396 55.2397 242.479 52.6609 242.479 50.4974V38.9168C242.479 35.4247 238.17 33.4672 236.083 33.4672H235.531V32.5314H251.309V32.5389Z" fill="white"/>
<path d="M289.798 24.3643L278.721 57.4779L266.208 24.3643H255.373L271.05 64.3162H275.418L274.8 66.4197C273.659 70.2937 271.572 71.6636 266.827 71.6636H258.955V80.7364H266.42C276.242 80.7364 282.31 76.9411 284.953 69.1259L299.996 24.3643H289.795H289.798Z" fill="white"/>
<path d="M59.552 20.8112C58.5196 23.6783 57.2672 27.0656 55.7017 31.2614C50.4126 45.4471 42.108 67.6875 36.6586 64.3451C32.4169 61.7438 42.2235 48.9542 37.2923 45.3797C36.7592 44.9905 36.0436 44.8819 35.1863 44.9905C36.9903 43.1265 38.9994 41.0791 41.4781 38.5863C42.9019 37.1565 44.3444 35.6968 45.7384 34.282C48.4482 31.5384 51.2512 28.6975 54.0467 25.9614L54.1884 25.823C55.929 24.1124 57.707 22.3757 59.5483 20.8112H59.552ZM72.6388 3.0585C72.4561 2.85264 72.2623 2.65052 72.0461 2.45589C68.4082 -0.867828 63.1154 -0.347561 54.7773 3.51139C47.0169 7.10085 43.0846 9.42895 28.943 18.4307C16.2103 26.5416 -3.76085 39.2675 0.615063 43.935C4.02187 47.5693 14.4696 35.3038 18.9686 39.4172C23.8439 43.8751 5.60599 71.9994 5.60599 71.9994C5.60599 71.9994 12.1848 64.4424 24.1049 51.6791C29.2151 46.2032 32.484 42.711 39.0367 36.131C43.2374 31.9127 47.3859 27.642 51.6388 23.4761C54.9301 20.2497 58.5121 16.7202 62.5488 14.3808C65.3704 12.7489 67.9498 13.0895 68.7474 15.8443C69.0158 16.7651 68.7474 18.4082 68.2181 19.4899C68.2442 19.4675 78.3491 9.57118 72.6425 3.06224L72.6388 3.0585Z" fill="white"/>
</g>
<defs>
<clipPath id="clip0_403_41441">
<rect width="300" height="80.4803" fill="white" transform="translate(0 0.259766)"/>
</clipPath>
</defs>
</svg>
