<svg width="48" height="48" viewBox="0 0 48 48" fill="none" xmlns="http://www.w3.org/2000/svg">
<path d="M16.2196 23.6995C10.5796 24.0995 10.5996 32.2995 16.2196 32.6995H29.5596C31.1796 32.7195 32.7396 32.0996 33.9396 31.0196C37.8996 27.5596 35.7796 20.6195 30.5796 19.9595C28.7196 8.67953 12.4196 12.9595 16.2796 23.6995" fill="url(#paint0_linear_403_41113)"/>
<path opacity="0.4" d="M18 45.5C9.46 45.5 2.5 38.54 2.5 30C2.5 29.18 3.18 28.5 4 28.5C4.82 28.5 5.5 29.18 5.5 30C5.5 35.92 9.61997 40.8801 15.16 42.1801L14.62 41.28C14.2 40.56 14.42 39.64 15.14 39.22C15.84 38.8 16.78 39.02 17.2 39.74L19.3 43.24C19.58 43.7 19.58 44.28 19.32 44.74C19.04 45.2 18.54 45.5 18 45.5Z" fill="url(#paint1_linear_403_41113)"/>
<path opacity="0.4" d="M43.9999 19.5C43.1799 19.5 42.4999 18.82 42.4999 18C42.4999 12.08 38.3799 7.11995 32.8399 5.81995L33.3799 6.71997C33.7999 7.43997 33.5799 8.36003 32.8599 8.78003C32.1599 9.20003 31.2199 8.98001 30.7999 8.26001L28.6999 4.76001C28.4199 4.30001 28.4199 3.72001 28.6799 3.26001C28.9399 2.78001 29.4399 2.5 29.9799 2.5C38.5199 2.5 45.4799 9.46 45.4799 18C45.4999 18.82 44.8199 19.5 43.9999 19.5Z" fill="url(#paint2_linear_403_41113)"/>
<defs>
<linearGradient id="paint0_linear_403_41113" x1="11.9971" y1="13.3047" x2="35.9926" y2="13.3047" gradientUnits="userSpaceOnUse">
<stop stop-color="#2BDAFF"/>
<stop offset="1" stop-color="#6CEAC7"/>
</linearGradient>
<linearGradient id="paint1_linear_403_41113" x1="2.5" y1="28.5" x2="19.5126" y2="28.5" gradientUnits="userSpaceOnUse">
<stop stop-color="#2BDAFF"/>
<stop offset="1" stop-color="#6CEAC7"/>
</linearGradient>
<linearGradient id="paint2_linear_403_41113" x1="28.4873" y1="2.5" x2="45.4803" y2="2.5" gradientUnits="userSpaceOnUse">
<stop stop-color="#2BDAFF"/>
<stop offset="1" stop-color="#6CEAC7"/>
</linearGradient>
</defs>
</svg>
