<svg width="49" height="48" viewBox="0 0 49 48" fill="none" xmlns="http://www.w3.org/2000/svg">
<path d="M44.3335 12.0002V16.8402C44.3335 20.0002 42.3335 22.0002 39.1735 22.0002H32.3335V8.02016C32.3335 5.80016 34.1535 3.98016 36.3735 4.00016C38.5535 4.02016 40.5535 4.90016 41.9935 6.34016C43.4335 7.80016 44.3335 9.80016 44.3335 12.0002Z" fill="url(#paint0_linear_403_41123)"/>
<path opacity="0.4" d="M4.3335 14V42C4.3335 43.66 6.21349 44.6 7.53349 43.6L10.9535 41.04C11.7535 40.44 12.8735 40.52 13.5935 41.24L16.9135 44.58C17.6935 45.36 18.9735 45.36 19.7535 44.58L23.1135 41.22C23.8135 40.52 24.9335 40.44 25.7135 41.04L29.1335 43.6C30.4535 44.58 32.3335 43.64 32.3335 42V8C32.3335 5.8 34.1335 4 36.3335 4H14.3335H12.3335C6.3335 4 4.3335 7.58 4.3335 12V14Z" fill="url(#paint1_linear_403_41123)"/>
<path d="M23.1938 24.1602C22.0938 24.1602 21.1938 25.0602 21.1938 26.1602C21.1938 27.2602 22.0938 28.1602 23.1938 28.1602C24.2938 28.1602 25.1938 27.2602 25.1938 26.1602C25.1938 25.0602 24.2938 24.1602 23.1938 24.1602Z" fill="url(#paint2_linear_403_41123)"/>
<path d="M13.4731 20.0596C14.5931 20.0596 15.4731 19.1596 15.4731 18.0596C15.4731 16.9596 14.5731 16.0596 13.4731 16.0596C12.3731 16.0596 11.4731 16.9596 11.4731 18.0596C11.4731 19.1596 12.3731 20.0596 13.4731 20.0596Z" fill="url(#paint3_linear_403_41123)"/>
<path d="M24.8534 15.4799C24.2734 14.8999 23.3134 14.8999 22.7334 15.4799L11.8134 26.3999C11.2334 26.9799 11.2334 27.9399 11.8134 28.5199C12.1134 28.8199 12.4934 28.9599 12.8734 28.9599C13.2534 28.9599 13.6334 28.8199 13.9334 28.5199L24.8534 17.5999C25.4334 17.0199 25.4334 16.0599 24.8534 15.4799Z" fill="url(#paint4_linear_403_41123)"/>
<defs>
<linearGradient id="paint0_linear_403_41123" x1="32.3335" y1="4" x2="44.3335" y2="4" gradientUnits="userSpaceOnUse">
<stop stop-color="#2BDAFF"/>
<stop offset="1" stop-color="#6CEAC7"/>
</linearGradient>
<linearGradient id="paint1_linear_403_41123" x1="4.3335" y1="4" x2="36.3335" y2="4" gradientUnits="userSpaceOnUse">
<stop stop-color="#2BDAFF"/>
<stop offset="1" stop-color="#6CEAC7"/>
</linearGradient>
<linearGradient id="paint2_linear_403_41123" x1="21.1938" y1="24.1602" x2="25.1938" y2="24.1602" gradientUnits="userSpaceOnUse">
<stop stop-color="#2BDAFF"/>
<stop offset="1" stop-color="#6CEAC7"/>
</linearGradient>
<linearGradient id="paint3_linear_403_41123" x1="11.4731" y1="16.0596" x2="15.4731" y2="16.0596" gradientUnits="userSpaceOnUse">
<stop stop-color="#2BDAFF"/>
<stop offset="1" stop-color="#6CEAC7"/>
</linearGradient>
<linearGradient id="paint4_linear_403_41123" x1="11.3784" y1="15.0449" x2="25.2884" y2="15.0449" gradientUnits="userSpaceOnUse">
<stop stop-color="#2BDAFF"/>
<stop offset="1" stop-color="#6CEAC7"/>
</linearGradient>
</defs>
</svg>
