<svg width="71" height="71" viewBox="0 0 71 71" fill="none" xmlns="http://www.w3.org/2000/svg">
<path opacity="0.4" d="M43.7996 12.3413H26.2996C18.2496 12.3413 11.7163 18.8746 11.7163 26.9246V44.4246C11.7163 52.4746 18.2496 59.008 26.2996 59.008H43.7996C51.8496 59.008 58.383 52.4746 58.383 44.4246V26.9246C58.383 18.8746 51.8496 12.3413 43.7996 12.3413ZM50.3913 42.2663C50.3913 47.108 46.483 51.0163 41.6413 51.0163H28.458C23.6163 51.0163 19.708 47.108 19.708 42.2663V29.083C19.708 24.2413 23.6163 20.333 28.458 20.333H41.6121C46.4538 20.333 50.3621 24.2413 50.3621 29.083V42.2663H50.3913Z" fill="url(#paint0_linear_403_34123)"/>
<path d="M26.4751 8.6958V12.3416H26.3001C24.8418 12.3416 23.4418 12.5458 22.1001 12.9541V8.6958C22.1001 7.49997 23.0626 6.5083 24.2876 6.5083C25.4834 6.5083 26.4751 7.49997 26.4751 8.6958Z" fill="url(#paint1_linear_403_34123)"/>
<path d="M37.2373 8.6958V12.3416H32.8623V8.6958C32.8623 7.49997 33.854 6.5083 35.0498 6.5083C36.2456 6.5083 37.2373 7.49997 37.2373 8.6958Z" fill="url(#paint2_linear_403_34123)"/>
<path d="M48.0298 8.6958V12.9541C46.6881 12.5458 45.259 12.3416 43.8006 12.3416H43.6548V8.6958C43.6548 7.49997 44.6465 6.5083 45.8423 6.5083C47.0381 6.5083 48.0298 7.49997 48.0298 8.6958Z" fill="url(#paint3_linear_403_34123)"/>
<path d="M64.2168 24.8828C64.2168 26.1078 63.2543 27.0703 62.0293 27.0703H58.3835V26.9245C58.3835 25.4661 58.1793 24.037 57.771 22.6953H62.0293C63.2543 22.6953 64.2168 23.687 64.2168 24.8828Z" fill="url(#paint4_linear_403_34123)"/>
<path d="M64.2166 35.6748C64.2166 36.8706 63.2541 37.8623 62.0291 37.8623H58.3833V33.4873H62.0291C63.2541 33.4873 64.2166 34.4498 64.2166 35.6748Z" fill="url(#paint5_linear_403_34123)"/>
<path d="M64.2168 46.4673C64.2168 47.6631 63.2543 48.6548 62.0293 48.6548H57.771C58.1793 47.3131 58.3835 45.884 58.3835 44.4256V44.2798H62.0293C63.2543 44.2798 64.2168 45.2423 64.2168 46.4673Z" fill="url(#paint6_linear_403_34123)"/>
<path d="M48.0298 58.396V62.6543C48.0298 63.8502 47.0381 64.8418 45.8423 64.8418C44.6465 64.8418 43.6548 63.8502 43.6548 62.6543V59.0085H43.8006C45.259 59.0085 46.6881 58.8043 48.0298 58.396Z" fill="url(#paint7_linear_403_34123)"/>
<path d="M37.2656 59.0083V62.6541C37.2656 63.85 36.274 64.8416 35.0781 64.8416C33.8531 64.8416 32.8906 63.85 32.8906 62.6541V59.0083H37.2656Z" fill="url(#paint8_linear_403_34123)"/>
<path d="M26.4751 59.0085V62.6543C26.4751 63.8502 25.4834 64.8418 24.2876 64.8418C23.0626 64.8418 22.1001 63.8502 22.1001 62.6543V58.396C23.4418 58.8043 24.8418 59.0085 26.3001 59.0085H26.4751Z" fill="url(#paint9_linear_403_34123)"/>
<path d="M12.3291 22.6953C11.9208 24.037 11.7166 25.4661 11.7166 26.9245V27.0703H8.0708C6.87497 27.0703 5.8833 26.1078 5.8833 24.8828C5.8833 23.687 6.87497 22.6953 8.0708 22.6953H12.3291V22.6953Z" fill="url(#paint10_linear_403_34123)"/>
<path d="M11.7166 33.4873V37.8623H8.0708C6.87497 37.8623 5.8833 36.8706 5.8833 35.6748C5.8833 34.4498 6.87497 33.4873 8.0708 33.4873H11.7166Z" fill="url(#paint11_linear_403_34123)"/>
<path d="M12.3291 48.6548H8.0708C6.87497 48.6548 5.8833 47.6631 5.8833 46.4673C5.8833 45.2423 6.87497 44.2798 8.0708 44.2798H11.7166V44.4256C11.7166 45.884 11.9208 47.3131 12.3291 48.6548Z" fill="url(#paint12_linear_403_34123)"/>
<path d="M41.6133 20.334C46.4549 20.3341 50.3926 24.2715 50.3926 29.084V42.2383C50.3924 47.0797 46.484 50.9881 41.6426 50.9883H28.459C23.6174 50.9883 19.7092 47.0798 19.709 42.2383V29.084C19.709 24.2423 23.6173 20.334 28.459 20.334H41.6133ZM35.0469 26.9248C34.3632 26.925 33.7959 27.4921 33.7959 28.1758V28.5928H33.2959C31.2778 28.5928 29.627 30.294 29.627 32.3955C29.627 34.8302 31.0439 35.6144 32.1279 35.998L33.7959 36.582V40.2842H33.6631C32.8125 40.2842 32.1279 39.5335 32.1279 38.6162C32.1278 37.9326 31.5615 37.3655 30.8779 37.3652C30.1942 37.3652 29.6271 37.9325 29.627 38.6162C29.627 40.9179 31.4282 42.7861 33.6631 42.7861H33.7959V43.2031C33.7959 43.8868 34.3632 44.4539 35.0469 44.4541C35.7307 44.4541 36.2978 43.8869 36.2979 43.2031V42.7861H36.7988C38.8167 42.7859 40.4678 41.0847 40.4678 38.9834C40.4678 36.5317 39.0499 35.7478 37.9658 35.3809L36.2979 34.7969V31.0947H36.4316C37.2822 31.0948 37.9658 31.8454 37.9658 32.7627C37.966 33.4463 38.5331 34.0137 39.2168 34.0137C39.9005 34.0137 40.4676 33.4463 40.4678 32.7627C40.4678 30.4611 38.6665 28.5929 36.4316 28.5928H36.2979V28.1758C36.2979 27.492 35.7307 26.9248 35.0469 26.9248ZM37.1484 37.749C37.7155 37.9492 37.9658 38.0661 37.9658 38.9834C37.9658 39.6837 37.4324 40.2673 36.7988 40.2676H36.2979V37.4492L37.1484 37.749ZM33.7959 33.8965L32.9453 33.6133C32.3784 33.4132 32.128 33.2959 32.1279 32.3789C32.1279 31.6617 32.6621 31.0781 33.2959 31.0781H33.7959V33.8965Z" fill="url(#paint13_linear_403_34123)"/>
<defs>
<linearGradient id="paint0_linear_403_34123" x1="11.7163" y1="12.3413" x2="58.383" y2="12.3413" gradientUnits="userSpaceOnUse">
<stop stop-color="#2BDAFF"/>
<stop offset="1" stop-color="#6CEAC7"/>
</linearGradient>
<linearGradient id="paint1_linear_403_34123" x1="22.1001" y1="6.5083" x2="26.4751" y2="6.5083" gradientUnits="userSpaceOnUse">
<stop stop-color="#2BDAFF"/>
<stop offset="1" stop-color="#6CEAC7"/>
</linearGradient>
<linearGradient id="paint2_linear_403_34123" x1="32.8623" y1="6.5083" x2="37.2373" y2="6.5083" gradientUnits="userSpaceOnUse">
<stop stop-color="#2BDAFF"/>
<stop offset="1" stop-color="#6CEAC7"/>
</linearGradient>
<linearGradient id="paint3_linear_403_34123" x1="43.6548" y1="6.5083" x2="48.0298" y2="6.5083" gradientUnits="userSpaceOnUse">
<stop stop-color="#2BDAFF"/>
<stop offset="1" stop-color="#6CEAC7"/>
</linearGradient>
<linearGradient id="paint4_linear_403_34123" x1="57.771" y1="22.6953" x2="64.2168" y2="22.6953" gradientUnits="userSpaceOnUse">
<stop stop-color="#2BDAFF"/>
<stop offset="1" stop-color="#6CEAC7"/>
</linearGradient>
<linearGradient id="paint5_linear_403_34123" x1="58.3833" y1="33.4873" x2="64.2166" y2="33.4873" gradientUnits="userSpaceOnUse">
<stop stop-color="#2BDAFF"/>
<stop offset="1" stop-color="#6CEAC7"/>
</linearGradient>
<linearGradient id="paint6_linear_403_34123" x1="57.771" y1="44.2798" x2="64.2168" y2="44.2798" gradientUnits="userSpaceOnUse">
<stop stop-color="#2BDAFF"/>
<stop offset="1" stop-color="#6CEAC7"/>
</linearGradient>
<linearGradient id="paint7_linear_403_34123" x1="43.6548" y1="58.396" x2="48.0298" y2="58.396" gradientUnits="userSpaceOnUse">
<stop stop-color="#2BDAFF"/>
<stop offset="1" stop-color="#6CEAC7"/>
</linearGradient>
<linearGradient id="paint8_linear_403_34123" x1="32.8906" y1="59.0083" x2="37.2656" y2="59.0083" gradientUnits="userSpaceOnUse">
<stop stop-color="#2BDAFF"/>
<stop offset="1" stop-color="#6CEAC7"/>
</linearGradient>
<linearGradient id="paint9_linear_403_34123" x1="22.1001" y1="58.396" x2="26.4751" y2="58.396" gradientUnits="userSpaceOnUse">
<stop stop-color="#2BDAFF"/>
<stop offset="1" stop-color="#6CEAC7"/>
</linearGradient>
<linearGradient id="paint10_linear_403_34123" x1="5.8833" y1="22.6953" x2="12.3291" y2="22.6953" gradientUnits="userSpaceOnUse">
<stop stop-color="#2BDAFF"/>
<stop offset="1" stop-color="#6CEAC7"/>
</linearGradient>
<linearGradient id="paint11_linear_403_34123" x1="5.8833" y1="33.4873" x2="11.7166" y2="33.4873" gradientUnits="userSpaceOnUse">
<stop stop-color="#2BDAFF"/>
<stop offset="1" stop-color="#6CEAC7"/>
</linearGradient>
<linearGradient id="paint12_linear_403_34123" x1="5.8833" y1="44.2798" x2="12.3291" y2="44.2798" gradientUnits="userSpaceOnUse">
<stop stop-color="#2BDAFF"/>
<stop offset="1" stop-color="#6CEAC7"/>
</linearGradient>
<linearGradient id="paint13_linear_403_34123" x1="19.709" y1="20.334" x2="50.3926" y2="20.334" gradientUnits="userSpaceOnUse">
<stop stop-color="#2BDAFF"/>
<stop offset="1" stop-color="#6CEAC7"/>
</linearGradient>
</defs>
</svg>
