<svg width="40" height="41" viewBox="0 0 40 41" fill="none" xmlns="http://www.w3.org/2000/svg">
<g clip-path="url(#clip0_403_41462)">
<path d="M20 0.740234C8.95407 0.740234 0 9.69431 0 20.7402C0 31.7862 8.95407 40.7402 20 40.7402C31.0459 40.7402 40 31.7862 40 20.7402C40 9.69431 31.0459 0.740234 20 0.740234ZM13.3985 31.6676C11.9763 31.6528 10.5541 31.6558 9.12889 31.6676C8.90074 31.6676 8.83259 31.6113 8.83259 31.3773C8.83852 26.3076 8.83852 21.238 8.83259 16.1654C8.83259 15.955 8.88296 15.881 9.10519 15.881C10.5481 15.8899 11.9911 15.8928 13.4341 15.881C13.7126 15.881 13.7481 15.9847 13.7481 16.2247C13.7422 18.7491 13.7452 21.2736 13.7452 23.798C13.7452 26.3225 13.7422 28.8054 13.7511 31.3091C13.7511 31.5876 13.683 31.6706 13.3956 31.6676H13.3985ZM11.2978 13.7091C9.74815 13.7091 8.46222 12.4291 8.4563 10.8795C8.45037 9.31505 9.7363 8.02616 11.3037 8.02616C12.8593 8.02616 14.1393 9.3032 14.1422 10.8528C14.1422 12.4262 12.8681 13.7062 11.2978 13.7062V13.7091ZM32.157 31.3417C32.157 31.5995 32.0859 31.6676 31.8311 31.6676C30.4089 31.6558 28.9837 31.6558 27.5615 31.6676C27.3096 31.6676 27.2563 31.5936 27.2563 31.3565C27.2652 28.7284 27.2652 26.1002 27.2563 23.4691C27.2563 22.8113 27.2119 22.1506 27.0281 21.5106C26.6874 20.3313 25.843 19.7299 24.6074 19.795C22.9185 19.8839 22.0415 20.7195 21.8252 22.435C21.7748 22.8439 21.7481 23.2558 21.7511 23.6676C21.7511 26.2247 21.7511 28.7817 21.757 31.3388C21.757 31.5936 21.6948 31.6676 21.4341 31.6676C20 31.6558 18.5659 31.6558 17.1319 31.6676C16.9007 31.6676 16.8356 31.6084 16.8356 31.3743C16.8415 26.3136 16.8415 21.2499 16.8356 16.1891C16.8356 15.9373 16.9185 15.881 17.1556 15.881C18.5156 15.8899 19.8785 15.8928 21.2385 15.881C21.4904 15.881 21.5526 15.961 21.5496 16.198C21.5348 16.8025 21.5437 17.4069 21.5437 18.0143C21.8726 17.6439 22.1422 17.2706 22.48 16.9536C23.517 15.9758 24.7437 15.4839 26.1778 15.4958C26.9659 15.5017 27.7422 15.558 28.5007 15.7773C30.237 16.278 31.2444 17.475 31.7274 19.1699C32.0889 20.441 32.1541 21.7476 32.157 23.0573C32.163 25.8188 32.1481 28.5832 32.157 31.3447V31.3417Z" fill="white"/>
</g>
<defs>
<clipPath id="clip0_403_41462">
<rect width="40" height="40" fill="white" transform="translate(0 0.740234)"/>
</clipPath>
</defs>
</svg>
