<svg width="70" height="70" viewBox="0 0 70 70" fill="none" xmlns="http://www.w3.org/2000/svg">
<path opacity="0.4" d="M49.0001 5.8335H18.1125C11.3459 5.8335 5.86255 11.3168 5.86255 18.0543V36.0793V36.6335C5.86255 43.4002 11.3459 48.8543 18.0834 48.8543H28.5834C30.1876 48.8543 31.5001 50.1668 31.5001 51.771V54.1627C31.5001 55.7668 30.1876 57.0793 28.5834 57.0793H22.0209C20.8834 57.0793 19.9501 58.0127 19.9501 59.1502C19.9501 60.2877 20.8834 61.221 22.0209 61.221H45.1501C46.2876 61.221 47.2209 60.2877 47.2209 59.1502C47.2209 58.0127 46.2876 57.0793 45.1501 57.0793H38.5876C36.9834 57.0793 35.6709 55.7668 35.6709 54.1627V51.771C35.6709 50.1668 36.9834 48.8543 38.5876 48.8543H49.0001C55.7667 48.8543 61.2209 43.371 61.2209 36.6335V36.0793V18.0543C61.2209 11.3168 55.7376 5.8335 49.0001 5.8335Z" fill="url(#paint0_linear_421_158162)"/>
<path d="M57.2833 27.7085H41.8542C36.8083 27.7085 34.9708 29.546 34.9708 34.6502V57.196C34.9708 62.3293 36.7792 64.1377 41.8542 64.1377H57.2833C62.3292 64.1377 64.1667 62.3002 64.1667 57.196V34.6502C64.1667 29.5168 62.3583 27.7085 57.2833 27.7085ZM49.5833 59.2668C47.8042 59.2668 46.375 57.8377 46.375 56.0585C46.375 54.2793 47.8042 52.8502 49.5833 52.8502C51.3625 52.8502 52.7917 54.2793 52.7917 56.0585C52.7917 57.8377 51.3625 59.2668 49.5833 59.2668Z" fill="url(#paint1_linear_421_158162)"/>
<path opacity="0.4" d="M52.7918 56.0589C52.7918 57.8381 51.3626 59.2672 49.5835 59.2672C47.8043 59.2672 46.3751 57.8381 46.3751 56.0589C46.3751 54.2797 47.8043 52.8506 49.5835 52.8506C51.3626 52.8506 52.7918 54.3089 52.7918 56.0589Z" fill="url(#paint2_linear_421_158162)"/>
<defs>
<linearGradient id="paint0_linear_421_158162" x1="5.86255" y1="5.8335" x2="61.2209" y2="5.8335" gradientUnits="userSpaceOnUse">
<stop stop-color="#2BDAFF"/>
<stop offset="1" stop-color="#6CEAC7"/>
</linearGradient>
<linearGradient id="paint1_linear_421_158162" x1="34.9708" y1="27.7085" x2="64.1667" y2="27.7085" gradientUnits="userSpaceOnUse">
<stop stop-color="#2BDAFF"/>
<stop offset="1" stop-color="#6CEAC7"/>
</linearGradient>
<linearGradient id="paint2_linear_421_158162" x1="46.3751" y1="52.8506" x2="52.7918" y2="52.8506" gradientUnits="userSpaceOnUse">
<stop stop-color="#2BDAFF"/>
<stop offset="1" stop-color="#6CEAC7"/>
</linearGradient>
</defs>
</svg>
