<svg width="70" height="70" viewBox="0 0 70 70" fill="none" xmlns="http://www.w3.org/2000/svg">
<path opacity="0.4" d="M35 45.7917V47.5708H5.83331V45.7917C5.83331 40.6583 7.11656 39.375 12.3082 39.375H28.5251C33.7167 39.375 35 40.6583 35 45.7917Z" fill="url(#paint0_linear_421_158163)"/>
<path d="M5.83331 47.5708V51.9458V57.75C5.83331 62.8833 7.11656 64.1666 12.3082 64.1666H28.5251C33.7167 64.1666 35 62.8833 35 57.75V51.9458V47.5708H5.83331Z" fill="url(#paint1_linear_421_158163)"/>
<g opacity="0.4">
<path fill-rule="evenodd" clip-rule="evenodd" d="M64.1667 41.5625C65.3748 41.5625 66.3542 42.5419 66.3542 43.75C66.3542 56.2456 56.2456 66.3542 43.75 66.3542C42.9619 66.3542 42.2347 65.9302 41.8464 65.2445C41.4581 64.5587 41.4688 63.717 41.8742 63.0412L44.9367 57.9371C45.5583 56.9011 46.902 56.5652 47.9379 57.1867C48.9739 57.8083 49.3098 59.152 48.6882 60.188L47.8969 61.5069C55.9735 59.6331 61.9792 52.4025 61.9792 43.75C61.9792 42.5419 62.9585 41.5625 64.1667 41.5625Z" fill="url(#paint2_linear_421_158163)"/>
<path fill-rule="evenodd" clip-rule="evenodd" d="M22.1031 8.49331C14.0265 10.3671 8.02081 17.5976 8.02081 26.2502C8.02081 27.4583 7.04144 28.4377 5.83331 28.4377C4.62519 28.4377 3.64581 27.4583 3.64581 26.2502C3.64581 13.7545 13.7544 3.646 26.25 3.646C27.0381 3.646 27.7652 4.06992 28.1535 4.75571C28.5418 5.44151 28.5312 6.28316 28.1258 6.95895L25.0633 12.0631C24.4417 13.0991 23.098 13.435 22.0621 12.8134C21.0261 12.1919 20.6902 10.8482 21.3117 9.81221L22.1031 8.49331Z" fill="url(#paint3_linear_421_158163)"/>
</g>
<path opacity="0.4" d="M67.0833 18.9585H40.8333C40.8333 26.1918 46.725 32.0835 53.9583 32.0835C61.2208 32.0835 67.0833 26.1918 67.0833 18.9585Z" fill="url(#paint4_linear_421_158163)"/>
<path d="M67.0833 18.9585C67.0833 11.696 61.2208 5.8335 53.9583 5.8335C46.725 5.8335 40.8333 11.696 40.8333 18.9585H67.0833Z" fill="url(#paint5_linear_421_158163)"/>
<defs>
<linearGradient id="paint0_linear_421_158163" x1="5.83331" y1="39.375" x2="35" y2="39.375" gradientUnits="userSpaceOnUse">
<stop stop-color="#2BDAFF"/>
<stop offset="1" stop-color="#6CEAC7"/>
</linearGradient>
<linearGradient id="paint1_linear_421_158163" x1="5.83331" y1="47.5708" x2="35" y2="47.5708" gradientUnits="userSpaceOnUse">
<stop stop-color="#2BDAFF"/>
<stop offset="1" stop-color="#6CEAC7"/>
</linearGradient>
<linearGradient id="paint2_linear_421_158163" x1="41.5625" y1="41.5625" x2="66.3542" y2="41.5625" gradientUnits="userSpaceOnUse">
<stop stop-color="#2BDAFF"/>
<stop offset="1" stop-color="#6CEAC7"/>
</linearGradient>
<linearGradient id="paint3_linear_421_158163" x1="3.64581" y1="3.646" x2="28.4375" y2="3.646" gradientUnits="userSpaceOnUse">
<stop stop-color="#2BDAFF"/>
<stop offset="1" stop-color="#6CEAC7"/>
</linearGradient>
<linearGradient id="paint4_linear_421_158163" x1="40.8333" y1="18.9585" x2="67.0833" y2="18.9585" gradientUnits="userSpaceOnUse">
<stop stop-color="#2BDAFF"/>
<stop offset="1" stop-color="#6CEAC7"/>
</linearGradient>
<linearGradient id="paint5_linear_421_158163" x1="40.8333" y1="5.8335" x2="67.0833" y2="5.8335" gradientUnits="userSpaceOnUse">
<stop stop-color="#2BDAFF"/>
<stop offset="1" stop-color="#6CEAC7"/>
</linearGradient>
</defs>
</svg>
