<svg width="70" height="70" viewBox="0 0 70 70" fill="none" xmlns="http://www.w3.org/2000/svg">
<path opacity="0.4" d="M47.2209 5.8335H22.7792C12.1625 5.8335 5.83337 12.1627 5.83337 22.7793V47.1918C5.83337 57.8377 12.1625 64.1668 22.7792 64.1668H47.1917C57.8084 64.1668 64.1375 57.8377 64.1375 47.221V22.7793C64.1667 12.1627 57.8375 5.8335 47.2209 5.8335Z" fill="url(#paint0_linear_421_158164)"/>
<path d="M28.7584 55.4174L33.6584 51.2757C34.3876 50.6632 35.6126 50.6632 36.3709 51.2757L41.2418 55.4174C42.3793 56.0007 43.7793 55.4174 44.1876 54.1924L45.1209 51.3924C45.3543 50.7215 45.1209 49.7299 44.6251 49.234L39.8418 44.4215C39.4918 44.0715 39.2293 43.4007 39.2293 42.934V37.5382C39.2293 36.3132 40.1334 35.7299 41.2709 36.1965L51.0418 40.3965C52.6459 41.0965 53.9876 40.2215 53.9876 38.4715V35.759C53.9876 34.359 52.9376 32.7257 51.6251 32.1715L40.1334 27.2132C39.6376 27.009 39.2584 26.3965 39.2584 25.8715V19.834C39.2584 17.8507 37.8001 15.5174 36.0501 14.6132C35.4084 14.2924 34.6793 14.2924 34.0376 14.6132C32.2584 15.4882 30.8293 17.8507 30.8293 19.834V25.8715C30.8293 26.3965 30.4209 27.009 29.9543 27.2132L18.4626 32.1715C17.1793 32.7257 16.1001 34.359 16.1001 35.759V38.4715C16.1001 40.2215 17.4126 41.0965 19.0459 40.3965L28.8168 36.1965C29.9251 35.7007 30.8584 36.3132 30.8584 37.5382V42.934C30.8584 43.4299 30.5668 44.1007 30.2459 44.4215L25.3751 49.2049C24.8793 49.7007 24.6459 50.6924 24.8793 51.3632L25.8126 54.1632C26.2209 55.4174 27.5918 56.0007 28.7584 55.4174Z" fill="url(#paint1_linear_421_158164)"/>
<defs>
<linearGradient id="paint0_linear_421_158164" x1="5.83337" y1="5.8335" x2="64.1376" y2="5.8335" gradientUnits="userSpaceOnUse">
<stop stop-color="#2BDAFF"/>
<stop offset="1" stop-color="#6CEAC7"/>
</linearGradient>
<linearGradient id="paint1_linear_421_158164" x1="16.1001" y1="14.3726" x2="53.9876" y2="14.3726" gradientUnits="userSpaceOnUse">
<stop stop-color="#2BDAFF"/>
<stop offset="1" stop-color="#6CEAC7"/>
</linearGradient>
</defs>
</svg>
