<svg width="70" height="70" viewBox="0 0 70 70" fill="none" xmlns="http://www.w3.org/2000/svg">
<path d="M56.2939 60.1062H57.0523C57.8106 60.1062 58.4406 59.4296 58.4406 58.6129C58.4406 57.5979 58.0789 57.3996 57.4839 57.1896L56.3056 56.7812V60.1062H56.2939Z" fill="url(#paint0_linear_421_158165)"/>
<path d="M55.3817 43.75C48.9417 43.7734 43.7267 49.0117 43.7501 55.4516C43.7734 61.8916 49.0117 67.1065 55.4517 67.0832C61.8916 67.0599 67.1066 61.8216 67.0833 55.3816C67.0599 48.9417 61.8216 43.7384 55.3817 43.75ZM58.0533 55.5333C58.9633 55.8483 60.1883 56.5249 60.1883 58.6133C60.1883 60.4099 58.7766 61.8566 57.05 61.8566H56.2917V62.5332C56.2917 63.0116 55.895 63.4082 55.4167 63.4082C54.9383 63.4082 54.5417 63.0116 54.5417 62.5332V61.8566H54.1217C52.2084 61.8566 50.6567 60.2466 50.6567 58.2633C50.6567 57.7849 51.0534 57.3883 51.5317 57.3883C52.01 57.3883 52.4067 57.7849 52.4067 58.2633C52.4067 59.2783 53.1767 60.1066 54.1217 60.1066H54.5417V56.1633L52.78 55.5333C51.87 55.2183 50.645 54.5416 50.645 52.4533C50.645 50.6566 52.0567 49.21 53.7833 49.21H54.5417V48.5333C54.5417 48.055 54.9383 47.6583 55.4167 47.6583C55.895 47.6583 56.2917 48.055 56.2917 48.5333V49.21H56.7117C58.625 49.21 60.1766 50.82 60.1766 52.8033C60.1766 53.2816 59.78 53.6783 59.3016 53.6783C58.8233 53.6783 58.4266 53.2816 58.4266 52.8033C58.4266 51.7883 57.6567 50.96 56.7117 50.96H56.2917V54.9033L58.0533 55.5333Z" fill="url(#paint1_linear_421_158165)"/>
<path d="M52.4088 52.464C52.4088 53.479 52.7705 53.6773 53.3655 53.8873L54.5438 54.2956V50.959H53.7855C53.0271 50.959 52.4088 51.6356 52.4088 52.464Z" fill="url(#paint2_linear_421_158165)"/>
<path opacity="0.4" d="M5.92085 42.6704C5.92085 42.7579 5.86255 42.8746 5.86255 42.9621C8.54588 48.3288 12.9208 52.7329 18.2875 55.387C18.375 55.387 18.4917 55.3287 18.5792 55.3287C17.5875 51.9454 16.8291 48.4745 16.275 45.0037C12.775 44.4204 9.30418 43.6621 5.92085 42.6704Z" fill="url(#paint3_linear_421_158165)"/>
<path opacity="0.4" d="M55.6208 18.754C52.8791 13.0082 48.2416 8.3707 42.5249 5.6582C43.5749 9.12904 44.4499 12.6874 45.0333 16.2457C48.5916 16.8291 52.15 17.6748 55.6208 18.754Z" fill="url(#paint4_linear_421_158165)"/>
<path opacity="0.4" d="M5.62903 18.7541C9.12903 17.7041 12.6874 16.8292 16.2457 16.2458C16.8291 12.775 17.5582 9.33333 18.5498 5.94999C18.4623 5.94999 18.3457 5.8916 18.2582 5.8916C12.7749 8.6041 8.31236 13.1833 5.62903 18.7541Z" fill="url(#paint5_linear_421_158165)"/>
<path opacity="0.4" d="M40.3082 15.634C39.6082 11.8423 38.7332 8.05071 37.4791 4.37571C37.4207 4.17155 37.4207 3.99657 37.3916 3.76324C35.2332 3.23824 32.9582 2.88818 30.6249 2.88818C28.2624 2.88818 26.0166 3.20907 23.8291 3.76324C23.7999 3.9674 23.829 4.14238 23.7707 4.37571C22.5457 8.05071 21.6415 11.8423 20.9415 15.634C27.3874 14.934 33.8624 14.934 40.3082 15.634Z" fill="url(#paint6_linear_421_158165)"/>
<path opacity="0.4" d="M15.6333 20.9424C11.8124 21.6424 8.04998 22.5174 4.37498 23.7716C4.17081 23.8299 3.99584 23.8299 3.7625 23.859C3.2375 26.0174 2.88745 28.2924 2.88745 30.6257C2.88745 32.9882 3.20834 35.234 3.7625 37.4215C3.96667 37.4507 4.14165 37.4216 4.37498 37.4799C8.04998 38.7049 11.8124 39.6091 15.6333 40.3091C14.9333 33.8633 14.9333 27.3882 15.6333 20.9424Z" fill="url(#paint7_linear_421_158165)"/>
<path opacity="0.4" d="M57.4584 23.859C57.2542 23.859 57.0791 23.8299 56.8458 23.7716C53.1708 22.5466 49.3792 21.6424 45.5875 20.9424C46.3167 27.3882 46.3167 33.8632 45.5875 40.2799C49.3792 39.5799 53.1708 38.7049 56.8458 37.4507C57.05 37.3924 57.225 37.4216 57.4584 37.3924C57.9834 35.2049 58.3333 32.959 58.3333 30.5965C58.3333 28.2924 58.0125 26.0466 57.4584 23.859Z" fill="url(#paint8_linear_421_158165)"/>
<path opacity="0.4" d="M20.9415 45.6172C21.6415 49.438 22.5165 53.2005 23.7707 56.8755C23.829 57.0796 23.7999 57.2546 23.8291 57.488C26.0166 58.013 28.2624 58.363 30.6249 58.363C32.9582 58.363 35.2332 58.0421 37.3916 57.488C37.4207 57.2838 37.4207 57.1088 37.4791 56.8755C38.7041 53.2005 39.6082 49.438 40.3082 45.6172C37.0999 45.9672 33.8624 46.2297 30.6249 46.2297C27.3874 46.2005 24.1499 45.9672 20.9415 45.6172Z" fill="url(#paint9_linear_421_158165)"/>
<path opacity="0.4" d="M20.2708 20.271C19.3958 27.1543 19.3958 34.096 20.2708 41.0085C27.1541 41.8835 34.0957 41.8835 41.0082 41.0085C41.8832 34.1251 41.8832 27.1835 41.0082 20.271C34.0957 19.396 27.1541 19.396 20.2708 20.271Z" fill="url(#paint10_linear_421_158165)"/>
<defs>
<linearGradient id="paint0_linear_421_158165" x1="56.2939" y1="56.7812" x2="58.4406" y2="56.7812" gradientUnits="userSpaceOnUse">
<stop stop-color="#2BDAFF"/>
<stop offset="1" stop-color="#6CEAC7"/>
</linearGradient>
<linearGradient id="paint1_linear_421_158165" x1="43.75" y1="43.75" x2="67.0833" y2="43.75" gradientUnits="userSpaceOnUse">
<stop stop-color="#2BDAFF"/>
<stop offset="1" stop-color="#6CEAC7"/>
</linearGradient>
<linearGradient id="paint2_linear_421_158165" x1="52.4088" y1="50.959" x2="54.5438" y2="50.959" gradientUnits="userSpaceOnUse">
<stop stop-color="#2BDAFF"/>
<stop offset="1" stop-color="#6CEAC7"/>
</linearGradient>
<linearGradient id="paint3_linear_421_158165" x1="5.86255" y1="42.6704" x2="18.5792" y2="42.6704" gradientUnits="userSpaceOnUse">
<stop stop-color="#2BDAFF"/>
<stop offset="1" stop-color="#6CEAC7"/>
</linearGradient>
<linearGradient id="paint4_linear_421_158165" x1="42.5249" y1="5.6582" x2="55.6208" y2="5.6582" gradientUnits="userSpaceOnUse">
<stop stop-color="#2BDAFF"/>
<stop offset="1" stop-color="#6CEAC7"/>
</linearGradient>
<linearGradient id="paint5_linear_421_158165" x1="5.62903" y1="5.8916" x2="18.5498" y2="5.8916" gradientUnits="userSpaceOnUse">
<stop stop-color="#2BDAFF"/>
<stop offset="1" stop-color="#6CEAC7"/>
</linearGradient>
<linearGradient id="paint6_linear_421_158165" x1="20.9415" y1="2.88818" x2="40.3082" y2="2.88818" gradientUnits="userSpaceOnUse">
<stop stop-color="#2BDAFF"/>
<stop offset="1" stop-color="#6CEAC7"/>
</linearGradient>
<linearGradient id="paint7_linear_421_158165" x1="2.88745" y1="20.9424" x2="15.6333" y2="20.9424" gradientUnits="userSpaceOnUse">
<stop stop-color="#2BDAFF"/>
<stop offset="1" stop-color="#6CEAC7"/>
</linearGradient>
<linearGradient id="paint8_linear_421_158165" x1="45.5875" y1="20.9424" x2="58.3333" y2="20.9424" gradientUnits="userSpaceOnUse">
<stop stop-color="#2BDAFF"/>
<stop offset="1" stop-color="#6CEAC7"/>
</linearGradient>
<linearGradient id="paint9_linear_421_158165" x1="20.9415" y1="45.6172" x2="40.3082" y2="45.6172" gradientUnits="userSpaceOnUse">
<stop stop-color="#2BDAFF"/>
<stop offset="1" stop-color="#6CEAC7"/>
</linearGradient>
<linearGradient id="paint10_linear_421_158165" x1="19.6145" y1="19.6147" x2="41.6645" y2="19.6147" gradientUnits="userSpaceOnUse">
<stop stop-color="#2BDAFF"/>
<stop offset="1" stop-color="#6CEAC7"/>
</linearGradient>
</defs>
</svg>
