<svg width="71" height="70" viewBox="0 0 71 70" fill="none" xmlns="http://www.w3.org/2000/svg">
<path opacity="0.4" d="M26.5251 13.4171C24.1918 3.32543 8.99595 3.29626 6.66261 13.4171C5.29178 19.3379 9.05428 24.3546 12.3209 27.4754C14.7126 29.7213 18.4751 29.7213 20.8668 27.4754C24.1334 24.3546 27.8668 19.3379 26.5251 13.4171ZM16.6959 18.0838C15.0918 18.0838 13.7793 16.7713 13.7793 15.1671C13.7793 13.5629 15.0626 12.2504 16.6668 12.2504H16.6959C18.3293 12.2504 19.6126 13.5629 19.6126 15.1671C19.6126 16.7713 18.3293 18.0838 16.6959 18.0838Z" fill="url(#paint0_linear_421_158161)"/>
<path d="M19.6125 15.1672C19.6125 16.7713 18.3292 18.0838 16.6958 18.0838C15.0917 18.0838 13.7792 16.7713 13.7792 15.1672C13.7792 13.563 15.0625 12.2505 16.6667 12.2505H16.6958C18.3292 12.2505 19.6125 13.563 19.6125 15.1672Z" fill="url(#paint1_linear_421_158161)"/>
<path opacity="0.4" d="M64.5292 48.4171C62.1958 38.3254 46.9417 38.2963 44.5792 48.4171C43.2083 54.3379 46.9708 59.3546 50.2667 62.4754C52.6583 64.7213 56.45 64.7213 58.8417 62.4754C62.1375 59.3546 65.9 54.3379 64.5292 48.4171ZM54.6708 53.0838C53.0667 53.0838 51.7542 51.7713 51.7542 50.1671C51.7542 48.5629 53.0375 47.2504 54.6417 47.2504H54.6708C56.275 47.2504 57.5875 48.5629 57.5875 50.1671C57.5875 51.7713 56.275 53.0838 54.6708 53.0838Z" fill="url(#paint2_linear_421_158161)"/>
<path d="M57.5876 50.1672C57.5876 51.7713 56.2751 53.0838 54.6709 53.0838C53.0668 53.0838 51.7543 51.7713 51.7543 50.1672C51.7543 48.563 53.0376 47.2505 54.6418 47.2505H54.6709C56.2751 47.2505 57.5876 48.563 57.5876 50.1672Z" fill="url(#paint3_linear_421_158161)"/>
<path d="M35.6249 57.6043H27.8082C24.4249 57.6043 21.479 55.5627 20.3124 52.4127C19.1165 49.2627 19.9915 45.7918 22.529 43.546L45.8332 23.1585C47.2332 21.9335 47.2624 20.271 46.854 19.1335C46.4165 17.996 45.3082 16.771 43.4415 16.771H35.6249C34.429 16.771 33.4374 15.7793 33.4374 14.5835C33.4374 13.3877 34.429 12.396 35.6249 12.396H43.4415C46.8249 12.396 49.7707 14.4377 50.9374 17.5877C52.1332 20.7377 51.2582 24.2085 48.7207 26.4543L25.4165 46.8418C24.0165 48.0668 23.9874 49.7293 24.3957 50.8668C24.8332 52.0043 25.9415 53.2293 27.8082 53.2293H35.6249C36.8207 53.2293 37.8124 54.221 37.8124 55.4168C37.8124 56.6127 36.8207 57.6043 35.6249 57.6043Z" fill="url(#paint4_linear_421_158161)"/>
<defs>
<linearGradient id="paint0_linear_421_158161" x1="6.37292" y1="5.8374" x2="26.8056" y2="5.8374" gradientUnits="userSpaceOnUse">
<stop stop-color="#2BDAFF"/>
<stop offset="1" stop-color="#6CEAC7"/>
</linearGradient>
<linearGradient id="paint1_linear_421_158161" x1="13.7792" y1="12.2505" x2="19.6125" y2="12.2505" gradientUnits="userSpaceOnUse">
<stop stop-color="#2BDAFF"/>
<stop offset="1" stop-color="#6CEAC7"/>
</linearGradient>
<linearGradient id="paint2_linear_421_158161" x1="44.2896" y1="40.8374" x2="64.8188" y2="40.8374" gradientUnits="userSpaceOnUse">
<stop stop-color="#2BDAFF"/>
<stop offset="1" stop-color="#6CEAC7"/>
</linearGradient>
<linearGradient id="paint3_linear_421_158161" x1="51.7543" y1="47.2505" x2="57.5876" y2="47.2505" gradientUnits="userSpaceOnUse">
<stop stop-color="#2BDAFF"/>
<stop offset="1" stop-color="#6CEAC7"/>
</linearGradient>
<linearGradient id="paint4_linear_421_158161" x1="19.7842" y1="12.396" x2="51.4656" y2="12.396" gradientUnits="userSpaceOnUse">
<stop stop-color="#2BDAFF"/>
<stop offset="1" stop-color="#6CEAC7"/>
</linearGradient>
</defs>
</svg>
