<svg width="134" height="37" viewBox="0 0 134 37" fill="none" xmlns="http://www.w3.org/2000/svg">
<g clip-path="url(#clip0_613_10366)">
<path d="M26.8325 8.86125C26.3677 10.1278 25.804 11.6243 25.0993 13.4778C22.7185 19.7446 18.9803 29.5697 16.5274 28.0931C14.618 26.9439 19.0323 21.2939 16.8126 19.7148C16.5727 19.5429 16.2505 19.4949 15.8646 19.5429C16.6767 18.7194 17.581 17.815 18.6968 16.7137C19.3377 16.0821 19.987 15.4372 20.6145 14.8122C21.8343 13.6002 23.096 12.3452 24.3544 11.1365L24.4181 11.0753C25.2017 10.3196 26.002 9.55242 26.8308 8.86125H26.8325ZM32.7233 1.0187C32.6411 0.927757 32.5539 0.838468 32.4565 0.752486C30.819 -0.715823 28.4365 -0.485986 24.6832 1.21877C21.19 2.80448 19.4199 3.83296 13.0543 7.80963C7.32285 11.3928 -1.66689 17.0147 0.302863 19.0766C1.83639 20.6821 6.53931 15.2636 8.56443 17.0808C10.759 19.0501 2.54946 31.4745 2.54946 31.4745C2.54946 31.4745 5.51081 28.1361 10.8765 22.4977C13.1768 20.0786 14.6482 18.5359 17.5978 15.629C19.4887 13.7655 21.3561 11.8789 23.2705 10.0385C24.752 8.61323 26.3644 7.05398 28.1815 6.02054C29.4516 5.29961 30.6126 5.45008 30.9717 6.66706C31.0925 7.07382 30.9717 7.79971 30.7334 8.27757C30.7452 8.26765 35.2937 3.89579 32.725 1.02035L32.7233 1.0187Z" fill="url(#paint0_linear_613_10366)"/>
<path d="M58.4192 8.30228V4.00318H41.433V28.9099H46.4564V18.5358L57.7951 18.4994V14.3442L46.4564 14.3806V8.30228H58.4192Z" fill="white"/>
<path d="M61.1254 11.2588V28.9082H66.1873V11.2588H61.1254ZM63.9324 3.71217C62.3435 3.71217 61.2344 4.74561 61.2344 6.22384C61.2344 7.70207 62.3435 8.77354 63.9324 8.77354C65.5212 8.77354 66.6655 7.72522 66.6655 6.22384C66.6655 4.72246 65.5414 3.71217 63.9324 3.71217Z" fill="white"/>
<path d="M80.3481 10.7148C78.2056 10.7148 76.1452 11.6854 74.8348 13.3074L74.3936 13.8547V11.2588H69.3668V28.9082H74.4657V18.5209C74.4657 16.2573 76.1821 14.7939 78.8381 14.7939C81.4941 14.7939 83.1736 16.2193 83.1736 18.3407V28.9082H88.2355V18.9558C88.2355 13.5637 85.5074 10.7131 80.3498 10.7131L80.3481 10.7148Z" fill="white"/>
<path d="M90.9369 11.2588V28.9082H96.0005V11.2588H90.9369ZM93.7439 3.71217C92.1567 3.71217 91.0476 4.74561 91.0476 6.22384C91.0476 7.70207 92.1567 8.77354 93.7439 8.77354C95.3311 8.77354 96.4787 7.72522 96.4787 6.22384C96.4787 4.72246 95.3529 3.71217 93.7439 3.71217Z" fill="white"/>
<path d="M111.532 14.87V11.2604H107.557V4.00318H102.458V11.2587H99.1832V14.8683H102.458V22.4397C102.458 26.7917 105.002 28.9082 110.235 28.9082H111.31V24.8985H109.94C107.97 24.8985 107.557 23.7592 107.557 22.8035V17.6876C107.557 16.1448 105.618 15.2801 104.678 15.2801H104.43V14.8667H111.532V14.87Z" fill="white"/>
<path d="M128.857 11.2588L123.871 25.8873L118.238 11.2588H113.361L120.418 28.9082H122.384L122.106 29.8375C121.592 31.5489 120.653 32.154 118.517 32.154H114.973V36.1621H118.334C122.755 36.1621 125.486 34.4855 126.676 31.033L133.448 11.2588H128.855H128.857Z" fill="white"/>
</g>
<defs>
<linearGradient id="paint0_linear_613_10366" x1="1.31291" y1="30.2559" x2="31.41" y2="-0.285477" gradientUnits="userSpaceOnUse">
<stop stop-color="#2BDAFF"/>
<stop offset="0.69" stop-color="#6CEAC7"/>
</linearGradient>
<clipPath id="clip0_613_10366">
<rect width="133.448" height="36.1621" fill="white"/>
</clipPath>
</defs>
</svg>
