<svg width="26" height="19" viewBox="0 0 26 19" fill="none" xmlns="http://www.w3.org/2000/svg">
<g clip-path="url(#clip0_2200_801)">
<mask id="mask0_2200_801" style="mask-type:alpha" maskUnits="userSpaceOnUse" x="0" y="0" width="26" height="19">
<path d="M23.1 0.5H2.7C1.37452 0.5 0.300003 1.57452 0.300003 2.9V16.1C0.300003 17.4255 1.37452 18.5 2.7 18.5H23.1C24.4255 18.5 25.5 17.4255 25.5 16.1V2.9C25.5 1.57452 24.4255 0.5 23.1 0.5Z" fill="white"/>
</mask>
<g mask="url(#mask0_2200_801)">
<path d="M23.1 0.5H2.7C1.37452 0.5 0.300003 1.57452 0.300003 2.9V16.1C0.300003 17.4255 1.37452 18.5 2.7 18.5H23.1C24.4255 18.5 25.5 17.4255 25.5 16.1V2.9C25.5 1.57452 24.4255 0.5 23.1 0.5Z" fill="white"/>
<path fill-rule="evenodd" clip-rule="evenodd" d="M0.300003 0.5H11.1V8.9H0.300003V0.5Z" fill="#444379"/>
<path fill-rule="evenodd" clip-rule="evenodd" d="M1.5 1.69922V2.89922H2.7V1.69922H1.5ZM3.9 1.69922V2.89922H5.1V1.69922H3.9ZM6.3 1.69922V2.89922H7.5V1.69922H6.3ZM8.7 1.69922V2.89922H9.9V1.69922H8.7ZM7.5 2.89922V4.09922H8.7V2.89922H7.5ZM5.1 2.89922V4.09922H6.3V2.89922H5.1ZM2.7 2.89922V4.09922H3.9V2.89922H2.7ZM1.5 4.09922V5.29922H2.7V4.09922H1.5ZM3.9 4.09922V5.29922H5.1V4.09922H3.9ZM6.3 4.09922V5.29922H7.5V4.09922H6.3ZM8.7 4.09922V5.29922H9.9V4.09922H8.7ZM1.5 6.49922V7.69922H2.7V6.49922H1.5ZM3.9 6.49922V7.69922H5.1V6.49922H3.9ZM6.3 6.49922V7.69922H7.5V6.49922H6.3ZM8.7 6.49922V7.69922H9.9V6.49922H8.7ZM7.5 5.29922V6.49922H8.7V5.29922H7.5ZM5.1 5.29922V6.49922H6.3V5.29922H5.1ZM2.7 5.29922V6.49922H3.9V5.29922H2.7Z" fill="#A7B6E7"/>
<path fill-rule="evenodd" clip-rule="evenodd" d="M11.1 0.5V1.7H25.5V0.5H11.1ZM11.1 2.9V4.1H25.5V2.9H11.1ZM11.1 5.3V6.5H25.5V5.3H11.1ZM11.1 7.7V8.9H25.5V7.7H11.1ZM0.300003 10.1V11.3H25.5V10.1H0.300003ZM0.300003 12.5V13.7H25.5V12.5H0.300003ZM0.300003 14.9V16.1H25.5V14.9H0.300003ZM0.300003 17.3V18.5H25.5V17.3H0.300003Z" fill="#ED4C49"/>
<path d="M23.1 1.09961H2.69999C1.70588 1.09961 0.899994 1.9055 0.899994 2.89961V16.0996C0.899994 17.0937 1.70588 17.8996 2.69999 17.8996H23.1C24.0941 17.8996 24.9 17.0937 24.9 16.0996V2.89961C24.9 1.9055 24.0941 1.09961 23.1 1.09961Z" stroke="black" stroke-opacity="0.1" stroke-width="1.2"/>
</g>
</g>
<defs>
<clipPath id="clip0_2200_801">
<rect width="25.2" height="18" fill="white" transform="translate(0.300003 0.5)"/>
</clipPath>
</defs>
</svg>
